<svg width="166" height="47" viewBox="0 0 166 47" fill="currentColor" xmlns="http://www.w3.org/2000/svg">
<path d="M17.536 22.888V32.008C16.1067 32.4773 14.752 32.8187 13.472 33.032C12.192 33.2453 11.1147 33.352 10.24 33.352C7.33867 33.352 5.06667 32.5947 3.424 31.08C1.78133 29.5653 0.96 27.24 0.96 24.104C0.96 20.904 1.824 18.5147 3.552 16.936C5.28 15.336 7.712 14.536 10.848 14.536C12.4907 14.536 14.464 14.7813 16.768 15.272C16.768 15.6987 16.7253 16.3387 16.64 17.192C16.5547 18.024 16.4693 18.6107 16.384 18.952L15.232 18.92C13.824 18.8773 12.7253 18.856 11.936 18.856C9.568 18.856 8.27733 18.9947 8.064 19.272C7.72267 19.6773 7.47733 20.3067 7.328 21.16C7.2 22.0133 7.136 22.8347 7.136 23.624C7.136 25.0533 7.296 26.1627 7.616 26.952C7.936 27.7413 8.42667 28.296 9.088 28.616C9.74933 28.936 10.6453 29.096 11.776 29.096H11.904V22.888H17.536ZM27.1683 21.608C29.3443 21.608 30.9443 22.1627 31.9683 23.272C32.9923 24.36 33.5043 25.768 33.5043 27.496C33.5043 31.4213 30.7843 33.384 25.3443 33.384C23.5949 33.384 21.6003 33.2133 19.3603 32.872L20.0643 29.352C21.8349 29.544 23.1576 29.64 24.0323 29.64C25.3336 29.64 26.3256 29.4587 27.0083 29.096C27.6909 28.7333 28.0323 28.1147 28.0323 27.24C28.0323 26.9413 27.9789 26.632 27.8723 26.312C27.7869 25.9707 27.6483 25.7573 27.4563 25.672C27.3709 25.6293 27.1363 25.5867 26.7523 25.544C26.3896 25.5013 25.9523 25.48 25.4403 25.48C23.8616 25.48 22.3149 25.608 20.8003 25.864L20.6403 25.704L21.9523 14.76H32.7683V19.016L25.9203 18.984L25.5683 21.704C26.1443 21.64 26.6776 21.608 27.1683 21.608ZM35.4005 22.472H45.0005V27.048H35.4005V22.472ZM47.6298 14.76H60.7178V18.728H53.3898V22.344H59.4378V25.832H53.3898V33H47.6298V14.76ZM65.2225 16.456C64.4972 16.456 63.8678 16.2107 63.3345 15.72C62.8225 15.2293 62.5665 14.6427 62.5665 13.96C62.5665 13.2773 62.8225 12.6907 63.3345 12.2C63.8678 11.7093 64.4972 11.464 65.2225 11.464C65.9478 11.464 66.5665 11.7093 67.0785 12.2C67.5905 12.6907 67.8465 13.2773 67.8465 13.96C67.8465 14.6427 67.5905 15.2293 67.0785 15.72C66.5665 16.2107 65.9478 16.456 65.2225 16.456ZM62.4705 18.28H67.9425V33H62.4705V18.28ZM77.4398 26.952C77.4398 27.336 77.4504 27.7413 77.4718 28.168C77.4931 28.5733 77.5571 28.8293 77.6638 28.936C77.8131 29.0853 78.3358 29.16 79.2318 29.16L80.3198 29.128C80.5118 30.152 80.6078 31.336 80.6078 32.68C80.2024 32.8293 79.6051 32.968 78.8158 33.096C78.0478 33.224 77.3118 33.288 76.6078 33.288C75.1358 33.288 73.9944 32.968 73.1838 32.328C72.3944 31.6667 71.9998 30.6533 71.9998 29.288V21.416H69.5998V18.504L71.9998 18.28L73.4398 14.76L77.4398 14.536V18.28H80.8318V21.416H77.4398V26.952ZM96.7083 19.208C96.9003 19.4427 97.0389 20.0293 97.1243 20.968C97.2309 21.9067 97.2843 23.336 97.2843 25.256V33H91.8123V25.32V24.008C91.8123 23.3253 91.7589 22.8987 91.6523 22.728C91.4816 22.5147 91.0869 22.408 90.4683 22.408C90.1696 22.408 89.9456 22.4187 89.7963 22.44C89.1989 22.4613 88.5803 22.6 87.9403 22.856V33H82.4683V18.28H86.9163L87.5243 20.744C89.0603 18.888 90.8949 17.96 93.0283 17.96C93.7963 17.96 94.5109 18.0667 95.1723 18.28C95.8549 18.4933 96.3669 18.8027 96.7083 19.208ZM108.74 29.16C109.273 29.16 110.265 29.1067 111.716 29C111.908 29 112.26 28.9787 112.772 28.936L113.252 32.232C111.609 33 109.476 33.384 106.852 33.384C104.399 33.384 102.511 32.7653 101.188 31.528C99.8867 30.2907 99.236 28.424 99.236 25.928C99.236 24.648 99.396 23.4107 99.716 22.216C100.057 21.0213 100.441 20.1893 100.868 19.72C101.316 19.2507 102.148 18.8453 103.364 18.504C104.58 18.1627 105.785 17.992 106.98 17.992C108.9 17.992 110.34 18.3333 111.3 19.016C112.26 19.6987 112.889 20.648 113.188 21.864C113.487 23.0587 113.636 24.6693 113.636 26.696C112.185 26.7813 110.767 26.824 109.38 26.824H104.836C104.836 27.5067 104.975 28.0187 105.252 28.36C105.551 28.7013 105.967 28.9253 106.5 29.032C107.033 29.1173 107.78 29.16 108.74 29.16ZM105.156 21.8C105.028 21.864 104.932 22.1413 104.868 22.632C104.804 23.1227 104.761 23.6773 104.74 24.296H106.404C107.407 24.296 108.132 24.2853 108.58 24.264C108.58 23.24 108.431 22.5147 108.132 22.088C107.855 21.6613 107.364 21.448 106.66 21.448C106.084 21.448 105.583 21.5653 105.156 21.8ZM127.466 28.008C127.466 29.9067 126.858 31.272 125.642 32.104C124.447 32.936 122.741 33.352 120.522 33.352C118.965 33.352 117.173 33.128 115.146 32.68C115.189 32.2533 115.285 31.6453 115.434 30.856C115.605 30.0453 115.743 29.4267 115.85 29C116.618 29.128 117.471 29.2347 118.41 29.32C119.349 29.384 120.149 29.416 120.81 29.416C121.386 29.416 121.738 29.384 121.866 29.32C121.887 29.2987 121.909 29.2453 121.93 29.16C121.973 29.0533 121.994 28.9467 121.994 28.84C121.994 28.4133 121.727 28.1253 121.194 27.976C121.023 27.9333 120.373 27.752 119.242 27.432C118.111 27.112 117.183 26.536 116.458 25.704C115.754 24.8507 115.402 23.7947 115.402 22.536C115.402 21.8747 115.551 21.1387 115.85 20.328C116.149 19.5173 116.469 19.0053 116.81 18.792C117.066 18.6213 117.685 18.4507 118.666 18.28C119.647 18.088 120.554 17.992 121.386 17.992C123.157 17.992 124.938 18.12 126.73 18.376C126.73 18.76 126.677 19.4107 126.57 20.328C126.463 21.224 126.367 21.7893 126.282 22.024C124.469 21.7893 123.007 21.672 121.898 21.672C121.322 21.672 120.949 21.704 120.778 21.768C120.735 21.7893 120.693 21.8533 120.65 21.96C120.607 22.0453 120.586 22.1627 120.586 22.312C120.586 22.6107 120.682 22.824 120.874 22.952C121.066 23.1013 121.567 23.2827 122.378 23.496C123.338 23.7733 124.159 24.0613 124.842 24.36C125.546 24.6587 126.154 25.1067 126.666 25.704C127.199 26.3013 127.466 27.0693 127.466 28.008ZM141.185 28.008C141.185 29.9067 140.577 31.272 139.361 32.104C138.166 32.936 136.459 33.352 134.241 33.352C132.683 33.352 130.891 33.128 128.865 32.68C128.907 32.2533 129.003 31.6453 129.153 30.856C129.323 30.0453 129.462 29.4267 129.569 29C130.337 29.128 131.19 29.2347 132.129 29.32C133.067 29.384 133.867 29.416 134.529 29.416C135.105 29.416 135.457 29.384 135.585 29.32C135.606 29.2987 135.627 29.2453 135.649 29.16C135.691 29.0533 135.713 28.9467 135.713 28.84C135.713 28.4133 135.446 28.1253 134.913 27.976C134.742 27.9333 134.091 27.752 132.961 27.432C131.83 27.112 130.902 26.536 130.177 25.704C129.473 24.8507 129.121 23.7947 129.121 22.536C129.121 21.8747 129.27 21.1387 129.569 20.328C129.867 19.5173 130.187 19.0053 130.529 18.792C130.785 18.6213 131.403 18.4507 132.385 18.28C133.366 18.088 134.273 17.992 135.105 17.992C136.875 17.992 138.657 18.12 140.449 18.376C140.449 18.76 140.395 19.4107 140.289 20.328C140.182 21.224 140.086 21.7893 140.001 22.024C138.187 21.7893 136.726 21.672 135.617 21.672C135.041 21.672 134.667 21.704 134.497 21.768C134.454 21.7893 134.411 21.8533 134.369 21.96C134.326 22.0453 134.305 22.1627 134.305 22.312C134.305 22.6107 134.401 22.824 134.593 22.952C134.785 23.1013 135.286 23.2827 136.097 23.496C137.057 23.7733 137.878 24.0613 138.561 24.36C139.265 24.6587 139.873 25.1067 140.385 25.704C140.918 26.3013 141.185 27.0693 141.185 28.008Z" fill="currentColor"/>
<rect x="68.4856" y="11.0631" width="24.0787" height="6.24289" rx="1" transform="rotate(90 68.4856 11.0631)" fill="currentColor"/>
<rect x="55.9998" y="5.20581" width="18.7287" height="3.90465" rx="1" fill="currentColor"/>
<rect x="55.9999" y="37.0939" width="18.7287" height="3.90465" rx="1" fill="currentColor"/>
<rect x="58.3167" y="42.3005" width="13.6498" height="3.90465" rx="1" fill="currentColor"/>
<rect x="59.2419" width="12.56" height="3.90465" rx="1" fill="currentColor"/>
</svg>
